<?xml version="1.0" encoding="UTF-8" standalone="no"?>
<svg width="282.222mm" height="116.417mm"
 viewBox="0 0 800 330"
 xmlns="http://www.w3.org/2000/svg" xmlns:xlink="http://www.w3.org/1999/xlink" version="1.2" baseProfile="tiny">
<title>fig_1_2_dfd_contexto_situacion_actual_ilustrada</title>
<desc>Generated with Qt</desc>
<defs>
</defs>
<g fill="none" stroke="black" stroke-width="1" fill-rule="evenodd" stroke-linecap="square" stroke-linejoin="bevel" >

<g fill="#ffffff" fill-opacity="1" stroke="none" transform="matrix(1,0,0,1,0,0)"
font-family="Sans Serif" font-size="9" font-weight="400" font-style="normal" 
>
<rect x="0" y="0" width="800" height="330"/>
</g>

<g fill="#fdf3e1" fill-opacity="1" stroke="#92400e" stroke-opacity="1" stroke-width="1.5" stroke-linecap="round" stroke-linejoin="round" transform="matrix(1,0,0,1,0,0)"
font-family="Sans Serif" font-size="9" font-weight="400" font-style="normal" 
>
<path vector-effect="none" fill-rule="evenodd" d="M320,40 C320,34.4772 324.477,30 330,30 L470,30 C475.523,30 480,34.4772 480,40 L480,150 C480,155.523 475.523,160 470,160 L330,160 C324.477,160 320,155.523 320,150 L320,40 Z "/>
<polyline fill="none" vector-effect="none" points="320,52 480,52 " />
</g>

<g fill="#fdf3e1" fill-opacity="1" stroke="#92400e" stroke-opacity="1" stroke-width="1.5" stroke-linecap="round" stroke-linejoin="round" transform="matrix(1,0,0,1,320,33)"
font-family="Sans Serif" font-size="9" font-weight="400" font-style="normal" 
>
</g>

<g fill="#fdf3e1" fill-opacity="1" stroke="#92400e" stroke-opacity="1" stroke-width="1" stroke-linecap="square" stroke-linejoin="bevel" transform="matrix(1,0,0,1,320,33)"
font-family="Sans Serif" font-size="9" font-weight="400" font-style="normal" 
>
<text fill="#92400e" fill-opacity="1" stroke="none" xml:space="preserve" x="76.3906" y="11.7656" font-family="Liberation Sans" font-size="13" font-weight="700" font-style="normal" 
 >0</text>
</g>

<g fill="#fdf3e1" fill-opacity="1" stroke="#92400e" stroke-opacity="1" stroke-width="1.5" stroke-linecap="round" stroke-linejoin="round" transform="matrix(1,0,0,1,320,33)"
font-family="Sans Serif" font-size="9" font-weight="400" font-style="normal" 
>
</g>

<g fill="#fdf3e1" fill-opacity="1" stroke="#92400e" stroke-opacity="1" stroke-width="1.5" stroke-linecap="round" stroke-linejoin="round" transform="matrix(1,0,0,1,0,0)"
font-family="Sans Serif" font-size="9" font-weight="400" font-style="normal" 
>
</g>

<g fill="#ffffff" fill-opacity="1" stroke="#92400e" stroke-opacity="1" stroke-width="5" stroke-linecap="round" stroke-linejoin="round" transform="matrix(0.36,0,0,0.36,330,88)"
font-family="Sans Serif" font-size="9" font-weight="400" font-style="normal" 
>
<rect x="38" y="8" width="24" height="34"/>
<polyline fill="none" vector-effect="none" points="43,22 48,28 57,16 " />
</g>

<g fill="#ffffff" fill-opacity="1" stroke="#92400e" stroke-opacity="1" stroke-width="6" stroke-linecap="round" stroke-linejoin="round" transform="matrix(0.36,0,0,0.36,330,88)"
font-family="Sans Serif" font-size="9" font-weight="400" font-style="normal" 
>
<path vector-effect="none" fill-rule="evenodd" d="M12,46 C12,42.6863 14.6863,40 18,40 L82,40 C85.3137,40 88,42.6863 88,46 L88,86 C88,89.3137 85.3137,92 82,92 L18,92 C14.6863,92 12,89.3137 12,86 L12,46 Z "/>
</g>

<g fill="#ffffff" fill-opacity="1" stroke="#92400e" stroke-opacity="1" stroke-width="8" stroke-linecap="round" stroke-linejoin="round" transform="matrix(0.36,0,0,0.36,330,88)"
font-family="Sans Serif" font-size="9" font-weight="400" font-style="normal" 
>
<polyline fill="none" vector-effect="none" points="32,40 68,40 " />
</g>

<g fill="#ffffff" fill-opacity="1" stroke="#92400e" stroke-opacity="1" stroke-width="5" stroke-linecap="round" stroke-linejoin="round" transform="matrix(0.36,0,0,0.36,330,88)"
font-family="Sans Serif" font-size="9" font-weight="400" font-style="normal" 
>
<polyline fill="none" vector-effect="none" points="34,66 66,66 " />
</g>

<g fill="#fdf3e1" fill-opacity="1" stroke="#92400e" stroke-opacity="1" stroke-width="1.5" stroke-linecap="round" stroke-linejoin="round" transform="matrix(1,0,0,1,0,0)"
font-family="Sans Serif" font-size="9" font-weight="400" font-style="normal" 
>
</g>

<g fill="#fdf3e1" fill-opacity="1" stroke="#92400e" stroke-opacity="1" stroke-width="1.5" stroke-linecap="round" stroke-linejoin="round" transform="matrix(1,0,0,1,372,74)"
font-family="Sans Serif" font-size="9" font-weight="400" font-style="normal" 
>
</g>

<g fill="#fdf3e1" fill-opacity="1" stroke="#1f2937" stroke-opacity="1" stroke-width="1" stroke-linecap="square" stroke-linejoin="bevel" transform="matrix(1,0,0,1,372,74)"
font-family="Sans Serif" font-size="9" font-weight="400" font-style="normal" 
>
<text fill="#1f2937" fill-opacity="1" stroke="none" xml:space="preserve" x="13.2969" y="12.6719" font-family="Liberation Sans" font-size="14" font-weight="700" font-style="normal" 
 >Proceso de</text>
</g>

<g fill="#fdf3e1" fill-opacity="1" stroke="#1f2937" stroke-opacity="1" stroke-width="1" stroke-linecap="square" stroke-linejoin="bevel" transform="matrix(1,0,0,1,372,74)"
font-family="Sans Serif" font-size="9" font-weight="400" font-style="normal" 
>
<text fill="#1f2937" fill-opacity="1" stroke="none" xml:space="preserve" x="22.2344" y="28.6719" font-family="Liberation Sans" font-size="14" font-weight="700" font-style="normal" 
 >votación</text>
</g>

<g fill="#fdf3e1" fill-opacity="1" stroke="#1f2937" stroke-opacity="1" stroke-width="1" stroke-linecap="square" stroke-linejoin="bevel" transform="matrix(1,0,0,1,372,74)"
font-family="Sans Serif" font-size="9" font-weight="400" font-style="normal" 
>
<text fill="#1f2937" fill-opacity="1" stroke="none" xml:space="preserve" x="26.5156" y="44.6719" font-family="Liberation Sans" font-size="14" font-weight="700" font-style="normal" 
 >manual</text>
</g>

<g fill="#fdf3e1" fill-opacity="1" stroke="#1f2937" stroke-opacity="1" stroke-width="1" stroke-linecap="square" stroke-linejoin="bevel" transform="matrix(1,0,0,1,372,74)"
font-family="Sans Serif" font-size="9" font-weight="400" font-style="normal" 
>
<text fill="#1f2937" fill-opacity="1" stroke="none" xml:space="preserve" x="3.20313" y="60.6719" font-family="Liberation Sans" font-size="14" font-weight="400" font-style="normal" 
 >de [EMPRESA]</text>
</g>

<g fill="#fdf3e1" fill-opacity="1" stroke="#92400e" stroke-opacity="1" stroke-width="1.5" stroke-linecap="round" stroke-linejoin="round" transform="matrix(1,0,0,1,372,74)"
font-family="Sans Serif" font-size="9" font-weight="400" font-style="normal" 
>
</g>

<g fill="#fdf3e1" fill-opacity="1" stroke="#92400e" stroke-opacity="1" stroke-width="1.5" stroke-linecap="round" stroke-linejoin="round" transform="matrix(1,0,0,1,0,0)"
font-family="Sans Serif" font-size="9" font-weight="400" font-style="normal" 
>
</g>

<g fill="#000000" fill-opacity="0.176471" stroke="none" transform="matrix(1,0,0,1,0,0)"
font-family="Sans Serif" font-size="9" font-weight="400" font-style="normal" 
>
<path vector-effect="none" fill-rule="evenodd" d="M14,66 C14,64.8954 14.8954,64 16,64 L152,64 C153.105,64 154,64.8954 154,66 L154,132 C154,133.105 153.105,134 152,134 L16,134 C14.8954,134 14,133.105 14,132 L14,66 Z "/>
</g>

<g fill="#f3f4f6" fill-opacity="1" stroke="#374151" stroke-opacity="1" stroke-width="1.6" stroke-linecap="round" stroke-linejoin="round" transform="matrix(1,0,0,1,0,0)"
font-family="Sans Serif" font-size="9" font-weight="400" font-style="normal" 
>
<path vector-effect="none" fill-rule="evenodd" d="M10,62 C10,60.8954 10.8954,60 12,60 L148,60 C149.105,60 150,60.8954 150,62 L150,128 C150,129.105 149.105,130 148,130 L12,130 C10.8954,130 10,129.105 10,128 L10,62 Z "/>
</g>

<g fill="#f3f4f6" fill-opacity="1" stroke="#374151" stroke-opacity="1" stroke-width="1.6" stroke-linecap="round" stroke-linejoin="round" transform="matrix(0.3,0,0,0.3,20,80)"
font-family="Sans Serif" font-size="9" font-weight="400" font-style="normal" 
>
</g>

<g fill="#ffffff" fill-opacity="1" stroke="#334155" stroke-opacity="1" stroke-width="6" stroke-linecap="round" stroke-linejoin="round" transform="matrix(0.186,0,0,0.186,18.5,85.4)"
font-family="Sans Serif" font-size="9" font-weight="400" font-style="normal" 
>
<circle cx="50" cy="30" r="17"/>
<path vector-effect="none" fill-rule="evenodd" d="M16,92 C16,56 84,56 84,92 L16,92 Z "/>
</g>

<g fill="#f3f4f6" fill-opacity="1" stroke="#374151" stroke-opacity="1" stroke-width="1.6" stroke-linecap="round" stroke-linejoin="round" transform="matrix(0.3,0,0,0.3,20,80)"
font-family="Sans Serif" font-size="9" font-weight="400" font-style="normal" 
>
</g>

<g fill="#ffffff" fill-opacity="1" stroke="#334155" stroke-opacity="1" stroke-width="6" stroke-linecap="round" stroke-linejoin="round" transform="matrix(0.186,0,0,0.186,32.9,85.4)"
font-family="Sans Serif" font-size="9" font-weight="400" font-style="normal" 
>
<circle cx="50" cy="30" r="17"/>
<path vector-effect="none" fill-rule="evenodd" d="M16,92 C16,56 84,56 84,92 L16,92 Z "/>
</g>

<g fill="#f3f4f6" fill-opacity="1" stroke="#374151" stroke-opacity="1" stroke-width="1.6" stroke-linecap="round" stroke-linejoin="round" transform="matrix(0.3,0,0,0.3,20,80)"
font-family="Sans Serif" font-size="9" font-weight="400" font-style="normal" 
>
</g>

<g fill="#ffffff" fill-opacity="1" stroke="#334155" stroke-opacity="1" stroke-width="6" stroke-linecap="round" stroke-linejoin="round" transform="matrix(0.24,0,0,0.24,23,86.6)"
font-family="Sans Serif" font-size="9" font-weight="400" font-style="normal" 
>
<circle cx="50" cy="30" r="17"/>
<path vector-effect="none" fill-rule="evenodd" d="M16,92 C16,56 84,56 84,92 L16,92 Z "/>
<circle cx="50" cy="30" r="17"/>
<path vector-effect="none" fill-rule="evenodd" d="M16,92 C16,56 84,56 84,92 L16,92 Z "/>
</g>

<g fill="#f3f4f6" fill-opacity="1" stroke="#374151" stroke-opacity="1" stroke-width="1.6" stroke-linecap="round" stroke-linejoin="round" transform="matrix(0.3,0,0,0.3,20,80)"
font-family="Sans Serif" font-size="9" font-weight="400" font-style="normal" 
>
</g>

<g fill="#f3f4f6" fill-opacity="1" stroke="#374151" stroke-opacity="1" stroke-width="1.6" stroke-linecap="round" stroke-linejoin="round" transform="matrix(1,0,0,1,0,0)"
font-family="Sans Serif" font-size="9" font-weight="400" font-style="normal" 
>
</g>

<g fill="#f3f4f6" fill-opacity="1" stroke="#374151" stroke-opacity="1" stroke-width="1.6" stroke-linecap="round" stroke-linejoin="round" transform="matrix(1,0,0,1,58,80)"
font-family="Sans Serif" font-size="9" font-weight="400" font-style="normal" 
>
</g>

<g fill="#f3f4f6" fill-opacity="1" stroke="#1f2937" stroke-opacity="1" stroke-width="1" stroke-linecap="square" stroke-linejoin="bevel" transform="matrix(1,0,0,1,58,80)"
font-family="Sans Serif" font-size="9" font-weight="400" font-style="normal" 
>
<text fill="#1f2937" fill-opacity="1" stroke="none" xml:space="preserve" x="20.9844" y="11.7656" font-family="Liberation Sans" font-size="13" font-weight="700" font-style="normal" 
 >Comité</text>
</g>

<g fill="#f3f4f6" fill-opacity="1" stroke="#1f2937" stroke-opacity="1" stroke-width="1" stroke-linecap="square" stroke-linejoin="bevel" transform="matrix(1,0,0,1,58,80)"
font-family="Sans Serif" font-size="9" font-weight="400" font-style="normal" 
>
<text fill="#1f2937" fill-opacity="1" stroke="none" xml:space="preserve" x="16.2969" y="26.7656" font-family="Liberation Sans" font-size="13" font-weight="700" font-style="normal" 
 >electoral</text>
</g>

<g fill="#f3f4f6" fill-opacity="1" stroke="#374151" stroke-opacity="1" stroke-width="1.6" stroke-linecap="round" stroke-linejoin="round" transform="matrix(1,0,0,1,58,80)"
font-family="Sans Serif" font-size="9" font-weight="400" font-style="normal" 
>
</g>

<g fill="#f3f4f6" fill-opacity="1" stroke="#374151" stroke-opacity="1" stroke-width="1.6" stroke-linecap="round" stroke-linejoin="round" transform="matrix(1,0,0,1,0,0)"
font-family="Sans Serif" font-size="9" font-weight="400" font-style="normal" 
>
</g>

<g fill="#000000" fill-opacity="0.176471" stroke="none" transform="matrix(1,0,0,1,0,0)"
font-family="Sans Serif" font-size="9" font-weight="400" font-style="normal" 
>
<path vector-effect="none" fill-rule="evenodd" d="M654,66 C654,64.8954 654.895,64 656,64 L792,64 C793.105,64 794,64.8954 794,66 L794,132 C794,133.105 793.105,134 792,134 L656,134 C654.895,134 654,133.105 654,132 L654,66 Z "/>
</g>

<g fill="#f3f4f6" fill-opacity="1" stroke="#374151" stroke-opacity="1" stroke-width="1.6" stroke-linecap="round" stroke-linejoin="round" transform="matrix(1,0,0,1,0,0)"
font-family="Sans Serif" font-size="9" font-weight="400" font-style="normal" 
>
<path vector-effect="none" fill-rule="evenodd" d="M650,62 C650,60.8954 650.895,60 652,60 L788,60 C789.105,60 790,60.8954 790,62 L790,128 C790,129.105 789.105,130 788,130 L652,130 C650.895,130 650,129.105 650,128 L650,62 Z "/>
</g>

<g fill="#ffffff" fill-opacity="1" stroke="#334155" stroke-opacity="1" stroke-width="6" stroke-linecap="round" stroke-linejoin="round" transform="matrix(0.3,0,0,0.3,660,80)"
font-family="Sans Serif" font-size="9" font-weight="400" font-style="normal" 
>
<circle cx="50" cy="30" r="17"/>
<path vector-effect="none" fill-rule="evenodd" d="M16,92 C16,56 84,56 84,92 L16,92 Z "/>
</g>

<g fill="#f3f4f6" fill-opacity="1" stroke="#374151" stroke-opacity="1" stroke-width="1.6" stroke-linecap="round" stroke-linejoin="round" transform="matrix(1,0,0,1,0,0)"
font-family="Sans Serif" font-size="9" font-weight="400" font-style="normal" 
>
</g>

<g fill="#f3f4f6" fill-opacity="1" stroke="#374151" stroke-opacity="1" stroke-width="1.6" stroke-linecap="round" stroke-linejoin="round" transform="matrix(1,0,0,1,698,87.5)"
font-family="Sans Serif" font-size="9" font-weight="400" font-style="normal" 
>
</g>

<g fill="#f3f4f6" fill-opacity="1" stroke="#1f2937" stroke-opacity="1" stroke-width="1" stroke-linecap="square" stroke-linejoin="bevel" transform="matrix(1,0,0,1,698,87.5)"
font-family="Sans Serif" font-size="9" font-weight="400" font-style="normal" 
>
<text fill="#1f2937" fill-opacity="1" stroke="none" xml:space="preserve" x="19.6719" y="11.7656" font-family="Liberation Sans" font-size="13" font-weight="700" font-style="normal" 
 >Votante</text>
</g>

<g fill="#f3f4f6" fill-opacity="1" stroke="#374151" stroke-opacity="1" stroke-width="1.6" stroke-linecap="round" stroke-linejoin="round" transform="matrix(1,0,0,1,698,87.5)"
font-family="Sans Serif" font-size="9" font-weight="400" font-style="normal" 
>
</g>

<g fill="#f3f4f6" fill-opacity="1" stroke="#374151" stroke-opacity="1" stroke-width="1.6" stroke-linecap="round" stroke-linejoin="round" transform="matrix(1,0,0,1,0,0)"
font-family="Sans Serif" font-size="9" font-weight="400" font-style="normal" 
>
</g>

<g fill="#000000" fill-opacity="0.176471" stroke="none" transform="matrix(1,0,0,1,0,0)"
font-family="Sans Serif" font-size="9" font-weight="400" font-style="normal" 
>
<path vector-effect="none" fill-rule="evenodd" d="M329,241 C329,239.895 329.895,239 331,239 L477,239 C478.105,239 479,239.895 479,241 L479,297 C479,298.105 478.105,299 477,299 L331,299 C329.895,299 329,298.105 329,297 L329,241 Z "/>
</g>

<g fill="#f3f4f6" fill-opacity="1" stroke="#374151" stroke-opacity="1" stroke-width="1.6" stroke-linecap="round" stroke-linejoin="round" transform="matrix(1,0,0,1,0,0)"
font-family="Sans Serif" font-size="9" font-weight="400" font-style="normal" 
>
<path vector-effect="none" fill-rule="evenodd" d="M325,237 C325,235.895 325.895,235 327,235 L473,235 C474.105,235 475,235.895 475,237 L475,293 C475,294.105 474.105,295 473,295 L327,295 C325.895,295 325,294.105 325,293 L325,237 Z "/>
</g>

<g fill="#f3f4f6" fill-opacity="1" stroke="#374151" stroke-opacity="1" stroke-width="1.6" stroke-linecap="round" stroke-linejoin="round" transform="matrix(0.3,0,0,0.3,335,250)"
font-family="Sans Serif" font-size="9" font-weight="400" font-style="normal" 
>
</g>

<g fill="#ffffff" fill-opacity="1" stroke="#334155" stroke-opacity="1" stroke-width="6" stroke-linecap="round" stroke-linejoin="round" transform="matrix(0.3,0,0,0.3,332.6,250)"
font-family="Sans Serif" font-size="9" font-weight="400" font-style="normal" 
>
<circle cx="50" cy="30" r="17"/>
<path vector-effect="none" fill-rule="evenodd" d="M16,92 C16,56 84,56 84,92 L16,92 Z "/>
</g>

<g fill="#f3f4f6" fill-opacity="1" stroke="#374151" stroke-opacity="1" stroke-width="1.6" stroke-linecap="round" stroke-linejoin="round" transform="matrix(0.3,0,0,0.3,335,250)"
font-family="Sans Serif" font-size="9" font-weight="400" font-style="normal" 
>
</g>

<g fill="#334155" fill-opacity="1" stroke="none" transform="matrix(0.15,0,0,0.15,350,265)"
font-family="Sans Serif" font-size="9" font-weight="400" font-style="normal" 
>
<circle cx="50" cy="50" r="50"/>
</g>

<g fill="#334155" fill-opacity="1" stroke="#ffffff" stroke-opacity="1" stroke-width="8" stroke-linecap="round" stroke-linejoin="round" transform="matrix(0.15,0,0,0.15,350,265)"
font-family="Sans Serif" font-size="9" font-weight="400" font-style="normal" 
>
<circle cx="42" cy="42" r="26"/>
</g>

<g fill="#334155" fill-opacity="1" stroke="#ffffff" stroke-opacity="1" stroke-width="12" stroke-linecap="round" stroke-linejoin="round" transform="matrix(0.15,0,0,0.15,350,265)"
font-family="Sans Serif" font-size="9" font-weight="400" font-style="normal" 
>
<polyline fill="none" vector-effect="none" points="62,62 88,88 " />
</g>

<g fill="#f3f4f6" fill-opacity="1" stroke="#374151" stroke-opacity="1" stroke-width="1.6" stroke-linecap="round" stroke-linejoin="round" transform="matrix(0.3,0,0,0.3,335,250)"
font-family="Sans Serif" font-size="9" font-weight="400" font-style="normal" 
>
</g>

<g fill="#f3f4f6" fill-opacity="1" stroke="#374151" stroke-opacity="1" stroke-width="1.6" stroke-linecap="round" stroke-linejoin="round" transform="matrix(1,0,0,1,0,0)"
font-family="Sans Serif" font-size="9" font-weight="400" font-style="normal" 
>
</g>

<g fill="#f3f4f6" fill-opacity="1" stroke="#374151" stroke-opacity="1" stroke-width="1.6" stroke-linecap="round" stroke-linejoin="round" transform="matrix(1,0,0,1,373,250)"
font-family="Sans Serif" font-size="9" font-weight="400" font-style="normal" 
>
</g>

<g fill="#f3f4f6" fill-opacity="1" stroke="#1f2937" stroke-opacity="1" stroke-width="1" stroke-linecap="square" stroke-linejoin="bevel" transform="matrix(1,0,0,1,373,250)"
font-family="Sans Serif" font-size="9" font-weight="400" font-style="normal" 
>
<text fill="#1f2937" fill-opacity="1" stroke="none" xml:space="preserve" x="5.78125" y="11.7656" font-family="Liberation Sans" font-size="13" font-weight="700" font-style="normal" 
 >Delegados de</text>
</g>

<g fill="#f3f4f6" fill-opacity="1" stroke="#1f2937" stroke-opacity="1" stroke-width="1" stroke-linecap="square" stroke-linejoin="bevel" transform="matrix(1,0,0,1,373,250)"
font-family="Sans Serif" font-size="9" font-weight="400" font-style="normal" 
>
<text fill="#1f2937" fill-opacity="1" stroke="none" xml:space="preserve" x="15.1563" y="26.7656" font-family="Liberation Sans" font-size="13" font-weight="700" font-style="normal" 
 >los frentes</text>
</g>

<g fill="#f3f4f6" fill-opacity="1" stroke="#374151" stroke-opacity="1" stroke-width="1.6" stroke-linecap="round" stroke-linejoin="round" transform="matrix(1,0,0,1,373,250)"
font-family="Sans Serif" font-size="9" font-weight="400" font-style="normal" 
>
</g>

<g fill="#f3f4f6" fill-opacity="1" stroke="#374151" stroke-opacity="1" stroke-width="1.6" stroke-linecap="round" stroke-linejoin="round" transform="matrix(1,0,0,1,0,0)"
font-family="Sans Serif" font-size="9" font-weight="400" font-style="normal" 
>
</g>

<g fill="none" stroke="#374151" stroke-opacity="1" stroke-width="1.5" stroke-linecap="round" stroke-linejoin="round" transform="matrix(1,0,0,1,0,0)"
font-family="Sans Serif" font-size="9" font-weight="400" font-style="normal" 
>
<polyline fill="none" vector-effect="none" points="150,75 320,75 " />
</g>

<g fill="#374151" fill-opacity="1" stroke="none" transform="matrix(1,0,0,1,0,0)"
font-family="Sans Serif" font-size="9" font-weight="400" font-style="normal" 
>
<polygon fill-rule="evenodd" vector-effect="none" points="320,75 310.869,79.0776 310.869,70.9224 " />
</g>

<g fill="#ffffff" fill-opacity="1" stroke="none" transform="matrix(1,0,0,1,0,0)"
font-family="Sans Serif" font-size="9" font-weight="400" font-style="normal" 
>
<path vector-effect="none" fill-rule="evenodd" d="M182.828,41 C182.828,39.3431 184.171,38 185.828,38 L284.172,38 C285.829,38 287.172,39.3431 287.172,41 L287.172,65 C287.172,66.6569 285.829,68 284.172,68 L185.828,68 C184.171,68 182.828,66.6569 182.828,65 L182.828,41 Z "/>
</g>

<g fill="#ffffff" fill-opacity="1" stroke="none" transform="matrix(1,0,0,1,185.828,39)"
font-family="Sans Serif" font-size="9" font-weight="400" font-style="normal" 
>
</g>

<g fill="#ffffff" fill-opacity="1" stroke="#1f2937" stroke-opacity="1" stroke-width="1" stroke-linecap="square" stroke-linejoin="bevel" transform="matrix(1,0,0,1,185.828,39)"
font-family="Sans Serif" font-size="9" font-weight="400" font-style="normal" 
>
<text fill="#1f2937" fill-opacity="1" stroke="none" xml:space="preserve" x="0.5" y="10.8594" font-family="Liberation Sans" font-size="12" font-weight="400" font-style="normal" 
 >Padrón, papeletas</text>
</g>

<g fill="#ffffff" fill-opacity="1" stroke="#1f2937" stroke-opacity="1" stroke-width="1" stroke-linecap="square" stroke-linejoin="bevel" transform="matrix(1,0,0,1,185.828,39)"
font-family="Sans Serif" font-size="9" font-weight="400" font-style="normal" 
>
<text fill="#1f2937" fill-opacity="1" stroke="none" xml:space="preserve" x="10.5" y="24.8594" font-family="Liberation Sans" font-size="12" font-weight="400" font-style="normal" 
 >y convocatoria</text>
</g>

<g fill="#ffffff" fill-opacity="1" stroke="none" transform="matrix(1,0,0,1,185.828,39)"
font-family="Sans Serif" font-size="9" font-weight="400" font-style="normal" 
>
</g>

<g fill="#ffffff" fill-opacity="1" stroke="none" transform="matrix(1,0,0,1,0,0)"
font-family="Sans Serif" font-size="9" font-weight="400" font-style="normal" 
>
</g>

<g fill="none" stroke="#374151" stroke-opacity="1" stroke-width="1.5" stroke-linecap="round" stroke-linejoin="round" transform="matrix(1,0,0,1,0,0)"
font-family="Sans Serif" font-size="9" font-weight="400" font-style="normal" 
>
<polyline fill="none" vector-effect="none" points="320,115 150,115 " />
</g>

<g fill="#374151" fill-opacity="1" stroke="none" transform="matrix(1,0,0,1,0,0)"
font-family="Sans Serif" font-size="9" font-weight="400" font-style="normal" 
>
<polygon fill-rule="evenodd" vector-effect="none" points="150,115 159.131,110.922 159.131,119.078 " />
</g>

<g fill="#ffffff" fill-opacity="1" stroke="none" transform="matrix(1,0,0,1,0,0)"
font-family="Sans Serif" font-size="9" font-weight="400" font-style="normal" 
>
<path vector-effect="none" fill-rule="evenodd" d="M153.172,127 C153.172,125.343 154.515,124 156.172,124 L313.828,124 C315.485,124 316.828,125.343 316.828,127 L316.828,151 C316.828,152.657 315.485,154 313.828,154 L156.172,154 C154.515,154 153.172,152.657 153.172,151 L153.172,127 Z "/>
</g>

<g fill="#ffffff" fill-opacity="1" stroke="none" transform="matrix(1,0,0,1,156.172,125)"
font-family="Sans Serif" font-size="9" font-weight="400" font-style="normal" 
>
</g>

<g fill="#ffffff" fill-opacity="1" stroke="#1f2937" stroke-opacity="1" stroke-width="1" stroke-linecap="square" stroke-linejoin="bevel" transform="matrix(1,0,0,1,156.172,125)"
font-family="Sans Serif" font-size="9" font-weight="400" font-style="normal" 
>
<text fill="#1f2937" fill-opacity="1" stroke="none" xml:space="preserve" x="15.1719" y="10.8594" font-family="Liberation Sans" font-size="12" font-weight="400" font-style="normal" 
 >Acta de resultados, lista</text>
</g>

<g fill="#ffffff" fill-opacity="1" stroke="#1f2937" stroke-opacity="1" stroke-width="1" stroke-linecap="square" stroke-linejoin="bevel" transform="matrix(1,0,0,1,156.172,125)"
font-family="Sans Serif" font-size="9" font-weight="400" font-style="normal" 
>
<text fill="#1f2937" fill-opacity="1" stroke="none" xml:space="preserve" x="0.5" y="24.8594" font-family="Liberation Sans" font-size="12" font-weight="400" font-style="normal" 
 >firmada y papeletas contadas</text>
</g>

<g fill="#ffffff" fill-opacity="1" stroke="none" transform="matrix(1,0,0,1,156.172,125)"
font-family="Sans Serif" font-size="9" font-weight="400" font-style="normal" 
>
</g>

<g fill="#ffffff" fill-opacity="1" stroke="none" transform="matrix(1,0,0,1,0,0)"
font-family="Sans Serif" font-size="9" font-weight="400" font-style="normal" 
>
</g>

<g fill="none" stroke="#374151" stroke-opacity="1" stroke-width="1.5" stroke-linecap="round" stroke-linejoin="round" transform="matrix(1,0,0,1,0,0)"
font-family="Sans Serif" font-size="9" font-weight="400" font-style="normal" 
>
<polyline fill="none" vector-effect="none" points="650,75 480,75 " />
</g>

<g fill="#374151" fill-opacity="1" stroke="none" transform="matrix(1,0,0,1,0,0)"
font-family="Sans Serif" font-size="9" font-weight="400" font-style="normal" 
>
<polygon fill-rule="evenodd" vector-effect="none" points="480,75 489.131,70.9224 489.131,79.0776 " />
</g>

<g fill="#ffffff" fill-opacity="1" stroke="none" transform="matrix(1,0,0,1,0,0)"
font-family="Sans Serif" font-size="9" font-weight="400" font-style="normal" 
>
<path vector-effect="none" fill-rule="evenodd" d="M508.164,41 C508.164,39.3431 509.507,38 511.164,38 L618.836,38 C620.493,38 621.836,39.3431 621.836,41 L621.836,65 C621.836,66.6569 620.493,68 618.836,68 L511.164,68 C509.507,68 508.164,66.6569 508.164,65 L508.164,41 Z "/>
</g>

<g fill="#ffffff" fill-opacity="1" stroke="none" transform="matrix(1,0,0,1,511.164,39)"
font-family="Sans Serif" font-size="9" font-weight="400" font-style="normal" 
>
</g>

<g fill="#ffffff" fill-opacity="1" stroke="#1f2937" stroke-opacity="1" stroke-width="1" stroke-linecap="square" stroke-linejoin="bevel" transform="matrix(1,0,0,1,511.164,39)"
font-family="Sans Serif" font-size="9" font-weight="400" font-style="normal" 
>
<text fill="#1f2937" fill-opacity="1" stroke="none" xml:space="preserve" x="0.5" y="10.8594" font-family="Liberation Sans" font-size="12" font-weight="400" font-style="normal" 
 >Cédula de identidad</text>
</g>

<g fill="#ffffff" fill-opacity="1" stroke="#1f2937" stroke-opacity="1" stroke-width="1" stroke-linecap="square" stroke-linejoin="bevel" transform="matrix(1,0,0,1,511.164,39)"
font-family="Sans Serif" font-size="9" font-weight="400" font-style="normal" 
>
<text fill="#1f2937" fill-opacity="1" stroke="none" xml:space="preserve" x="1.17188" y="24.8594" font-family="Liberation Sans" font-size="12" font-weight="400" font-style="normal" 
 >y papeleta marcada</text>
</g>

<g fill="#ffffff" fill-opacity="1" stroke="none" transform="matrix(1,0,0,1,511.164,39)"
font-family="Sans Serif" font-size="9" font-weight="400" font-style="normal" 
>
</g>

<g fill="#ffffff" fill-opacity="1" stroke="none" transform="matrix(1,0,0,1,0,0)"
font-family="Sans Serif" font-size="9" font-weight="400" font-style="normal" 
>
</g>

<g fill="none" stroke="#374151" stroke-opacity="1" stroke-width="1.5" stroke-linecap="round" stroke-linejoin="round" transform="matrix(1,0,0,1,0,0)"
font-family="Sans Serif" font-size="9" font-weight="400" font-style="normal" 
>
<polyline fill="none" vector-effect="none" points="480,115 650,115 " />
</g>

<g fill="#374151" fill-opacity="1" stroke="none" transform="matrix(1,0,0,1,0,0)"
font-family="Sans Serif" font-size="9" font-weight="400" font-style="normal" 
>
<polygon fill-rule="evenodd" vector-effect="none" points="650,115 640.869,119.078 640.869,110.922 " />
</g>

<g fill="#ffffff" fill-opacity="1" stroke="none" transform="matrix(1,0,0,1,0,0)"
font-family="Sans Serif" font-size="9" font-weight="400" font-style="normal" 
>
<path vector-effect="none" fill-rule="evenodd" d="M510.156,126 C510.156,124.343 511.499,123 513.156,123 L616.844,123 C618.501,123 619.844,124.343 619.844,126 L619.844,136 C619.844,137.657 618.501,139 616.844,139 L513.156,139 C511.499,139 510.156,137.657 510.156,136 L510.156,126 Z "/>
</g>

<g fill="#ffffff" fill-opacity="1" stroke="none" transform="matrix(1,0,0,1,513.156,124)"
font-family="Sans Serif" font-size="9" font-weight="400" font-style="normal" 
>
</g>

<g fill="#ffffff" fill-opacity="1" stroke="#1f2937" stroke-opacity="1" stroke-width="1" stroke-linecap="square" stroke-linejoin="bevel" transform="matrix(1,0,0,1,513.156,124)"
font-family="Sans Serif" font-size="9" font-weight="400" font-style="normal" 
>
<text fill="#1f2937" fill-opacity="1" stroke="none" xml:space="preserve" x="0.5" y="10.8594" font-family="Liberation Sans" font-size="12" font-weight="400" font-style="normal" 
 >Papeleta en blanco</text>
</g>

<g fill="#ffffff" fill-opacity="1" stroke="none" transform="matrix(1,0,0,1,513.156,124)"
font-family="Sans Serif" font-size="9" font-weight="400" font-style="normal" 
>
</g>

<g fill="#ffffff" fill-opacity="1" stroke="none" transform="matrix(1,0,0,1,0,0)"
font-family="Sans Serif" font-size="9" font-weight="400" font-style="normal" 
>
</g>

<g fill="none" stroke="#374151" stroke-opacity="1" stroke-width="1.5" stroke-linecap="round" stroke-linejoin="round" transform="matrix(1,0,0,1,0,0)"
font-family="Sans Serif" font-size="9" font-weight="400" font-style="normal" 
>
<polyline fill="none" vector-effect="none" points="370,235 370,160 " />
</g>

<g fill="#374151" fill-opacity="1" stroke="none" transform="matrix(1,0,0,1,0,0)"
font-family="Sans Serif" font-size="9" font-weight="400" font-style="normal" 
>
<polygon fill-rule="evenodd" vector-effect="none" points="370,160 374.078,169.131 365.922,169.131 " />
</g>

<g fill="#ffffff" fill-opacity="1" stroke="none" transform="matrix(1,0,0,1,0,0)"
font-family="Sans Serif" font-size="9" font-weight="400" font-style="normal" 
>
<path vector-effect="none" fill-rule="evenodd" d="M264.5,185.5 C264.5,183.843 265.843,182.5 267.5,182.5 L348.5,182.5 C350.157,182.5 351.5,183.843 351.5,185.5 L351.5,209.5 C351.5,211.157 350.157,212.5 348.5,212.5 L267.5,212.5 C265.843,212.5 264.5,211.157 264.5,209.5 L264.5,185.5 Z "/>
</g>

<g fill="#ffffff" fill-opacity="1" stroke="none" transform="matrix(1,0,0,1,267.5,183.5)"
font-family="Sans Serif" font-size="9" font-weight="400" font-style="normal" 
>
</g>

<g fill="#ffffff" fill-opacity="1" stroke="#1f2937" stroke-opacity="1" stroke-width="1" stroke-linecap="square" stroke-linejoin="bevel" transform="matrix(1,0,0,1,267.5,183.5)"
font-family="Sans Serif" font-size="9" font-weight="400" font-style="normal" 
>
<text fill="#1f2937" fill-opacity="1" stroke="none" xml:space="preserve" x="0.5" y="10.8594" font-family="Liberation Sans" font-size="12" font-weight="400" font-style="normal" 
 >Observaciones</text>
</g>

<g fill="#ffffff" fill-opacity="1" stroke="#1f2937" stroke-opacity="1" stroke-width="1" stroke-linecap="square" stroke-linejoin="bevel" transform="matrix(1,0,0,1,267.5,183.5)"
font-family="Sans Serif" font-size="9" font-weight="400" font-style="normal" 
>
<text fill="#1f2937" fill-opacity="1" stroke="none" xml:space="preserve" x="11.5156" y="24.8594" font-family="Liberation Sans" font-size="12" font-weight="400" font-style="normal" 
 >y reclamos</text>
</g>

<g fill="#ffffff" fill-opacity="1" stroke="none" transform="matrix(1,0,0,1,267.5,183.5)"
font-family="Sans Serif" font-size="9" font-weight="400" font-style="normal" 
>
</g>

<g fill="#ffffff" fill-opacity="1" stroke="none" transform="matrix(1,0,0,1,0,0)"
font-family="Sans Serif" font-size="9" font-weight="400" font-style="normal" 
>
</g>

<g fill="none" stroke="#374151" stroke-opacity="1" stroke-width="1.5" stroke-linecap="round" stroke-linejoin="round" transform="matrix(1,0,0,1,0,0)"
font-family="Sans Serif" font-size="9" font-weight="400" font-style="normal" 
>
<polyline fill="none" vector-effect="none" points="430,160 430,235 " />
</g>

<g fill="#374151" fill-opacity="1" stroke="none" transform="matrix(1,0,0,1,0,0)"
font-family="Sans Serif" font-size="9" font-weight="400" font-style="normal" 
>
<polygon fill-rule="evenodd" vector-effect="none" points="430,235 425.922,225.869 434.078,225.869 " />
</g>

<g fill="#ffffff" fill-opacity="1" stroke="none" transform="matrix(1,0,0,1,0,0)"
font-family="Sans Serif" font-size="9" font-weight="400" font-style="normal" 
>
<path vector-effect="none" fill-rule="evenodd" d="M447.5,185.5 C447.5,183.843 448.843,182.5 450.5,182.5 L493.5,182.5 C495.157,182.5 496.5,183.843 496.5,185.5 L496.5,209.5 C496.5,211.157 495.157,212.5 493.5,212.5 L450.5,212.5 C448.843,212.5 447.5,211.157 447.5,209.5 L447.5,185.5 Z "/>
</g>

<g fill="#ffffff" fill-opacity="1" stroke="none" transform="matrix(1,0,0,1,450.5,183.5)"
font-family="Sans Serif" font-size="9" font-weight="400" font-style="normal" 
>
</g>

<g fill="#ffffff" fill-opacity="1" stroke="#1f2937" stroke-opacity="1" stroke-width="1" stroke-linecap="square" stroke-linejoin="bevel" transform="matrix(1,0,0,1,450.5,183.5)"
font-family="Sans Serif" font-size="9" font-weight="400" font-style="normal" 
>
<text fill="#1f2937" fill-opacity="1" stroke="none" xml:space="preserve" x="5.82813" y="10.8594" font-family="Liberation Sans" font-size="12" font-weight="400" font-style="normal" 
 >Copia</text>
</g>

<g fill="#ffffff" fill-opacity="1" stroke="#1f2937" stroke-opacity="1" stroke-width="1" stroke-linecap="square" stroke-linejoin="bevel" transform="matrix(1,0,0,1,450.5,183.5)"
font-family="Sans Serif" font-size="9" font-weight="400" font-style="normal" 
>
<text fill="#1f2937" fill-opacity="1" stroke="none" xml:space="preserve" x="0.5" y="24.8594" font-family="Liberation Sans" font-size="12" font-weight="400" font-style="normal" 
 >del acta</text>
</g>

<g fill="#ffffff" fill-opacity="1" stroke="none" transform="matrix(1,0,0,1,450.5,183.5)"
font-family="Sans Serif" font-size="9" font-weight="400" font-style="normal" 
>
</g>

<g fill="#ffffff" fill-opacity="1" stroke="none" transform="matrix(1,0,0,1,0,0)"
font-family="Sans Serif" font-size="9" font-weight="400" font-style="normal" 
>
</g>

<g fill="#ffffff" fill-opacity="1" stroke="none" transform="matrix(1,0,0,1,10,262)"
font-family="Sans Serif" font-size="9" font-weight="400" font-style="normal" 
>
</g>

<g fill="#ffffff" fill-opacity="1" stroke="#6b7280" stroke-opacity="1" stroke-width="1" stroke-linecap="square" stroke-linejoin="bevel" transform="matrix(1,0,0,1,10,262)"
font-family="Sans Serif" font-size="9" font-weight="400" font-style="normal" 
>
<text fill="#6b7280" fill-opacity="1" stroke="none" xml:space="preserve" x="0" y="10.8594" font-family="Liberation Sans" font-size="12" font-weight="700" font-style="normal" 
 >Notación Gane-Sarson</text>
</g>

<g fill="#ffffff" fill-opacity="1" stroke="#6b7280" stroke-opacity="1" stroke-width="1" stroke-linecap="square" stroke-linejoin="bevel" transform="matrix(1,0,0,1,10,262)"
font-family="Sans Serif" font-size="9" font-weight="400" font-style="normal" 
>
<text fill="#6b7280" fill-opacity="1" stroke="none" xml:space="preserve" x="0" y="25.125" font-family="Liberation Sans" font-size="12" font-weight="400" font-style="normal" 
 >□ entidad externa · </text>
<text fill="#6b7280" fill-opacity="1" stroke="none" xml:space="preserve" x="103.875" y="25.125" font-family="Liberation Sans" font-size="12" font-weight="400" font-style="normal" 
 >▢</text>
<text fill="#6b7280" fill-opacity="1" stroke="none" xml:space="preserve" x="115.203" y="25.125" font-family="Liberation Sans" font-size="12" font-weight="400" font-style="normal" 
 > proceso · → flujo de datos</text>
</g>

<g fill="#ffffff" fill-opacity="1" stroke="none" transform="matrix(1,0,0,1,10,262)"
font-family="Sans Serif" font-size="9" font-weight="400" font-style="normal" 
>
</g>

<g fill="#ffffff" fill-opacity="1" stroke="none" transform="matrix(1,0,0,1,0,0)"
font-family="Sans Serif" font-size="9" font-weight="400" font-style="normal" 
>
</g>
</g>
</svg>
